<svg width="30" height="30" viewBox="0 0 30 30" fill="none" xmlns="http://www.w3.org/2000/svg">
<path d="M22.3628 20.8998L23.0843 22.8955C23.6086 24.346 22.9792 25.9607 21.6116 26.6737C21.3387 26.8159 21.0461 26.9164 20.7435 26.9719L18.4102 27.3999C16.2458 27.7969 14.0286 27.8113 11.8592 27.4424L9.10869 26.9747C8.77207 26.9175 8.4478 26.8028 8.15006 26.6356C6.90271 25.9354 6.32945 24.4472 6.78467 23.0911L7.4635 21.0688C8.15579 19.0065 9.98828 17.5382 12.1519 17.3121L14.2356 17.0943C14.8357 17.0316 15.4409 17.0341 16.0405 17.1017L17.8012 17.3001C19.8826 17.5347 21.6507 18.93 22.3628 20.8998Z" fill="#1B3168"/>
<circle cx="15.2252" cy="10.5" r="4.5" fill="#1B3168"/>
<circle cx="15" cy="15" r="13.5" stroke="#1B3168" stroke-width="3"/>
</svg>
