<svg width="28" height="27" viewBox="0 0 28 27" fill="none" xmlns="http://www.w3.org/2000/svg">
<path d="M12.9961 1.74868C13.3736 1.0469 14.3801 1.0469 14.7575 1.74867L17.6987 7.21721C18.1321 8.02312 18.9097 8.58713 19.8104 8.74893L25.9254 9.84744C26.7114 9.98864 27.0229 10.9489 26.4695 11.5246L22.1759 15.9919C21.5401 16.6534 21.242 17.5694 21.3667 18.4784L22.2083 24.6148C22.3167 25.4049 21.5019 25.9978 20.7835 25.6515L15.1793 22.9507C14.3563 22.5541 13.3974 22.5541 12.5744 22.9507L6.97018 25.6515C6.25175 25.9978 5.43694 25.4049 5.54531 24.6148L6.38698 18.4784C6.51166 17.5694 6.21353 16.6534 5.57774 15.9919L1.28411 11.5246C0.7307 10.9489 1.04224 9.98864 1.82828 9.84744L7.94329 8.74893C8.84395 8.58713 9.62152 8.02312 10.055 7.21721L12.9961 1.74868Z" fill="#8A9CCB" stroke="#435B99" stroke-width="2"/>
</svg>
