<svg width="156" height="153" viewBox="0 0 156 153" fill="none" xmlns="http://www.w3.org/2000/svg">
<line x1="110.359" y1="106.986" x2="122.523" y2="106.986" stroke="#8A9CCB" stroke-width="3"/>
<path d="M116.441 98.2538V132.351C116.441 132.903 116.889 133.351 117.441 133.351H122.523" stroke="#8A9CCB" stroke-width="3"/>
<path d="M108.579 115.647L107.475 114.539C105.916 112.975 103.798 112.096 101.59 112.096H100.587C99.3446 112.096 98.1392 112.52 97.17 113.297L96.7059 113.67C95.708 114.471 95.1273 115.681 95.1273 116.961V116.961C95.1273 119.06 96.6703 120.839 98.7481 121.137L100.083 121.329L104.85 122.285C106.31 122.578 107.552 123.528 108.216 124.86V124.86C108.891 126.214 108.891 127.806 108.216 129.16L107.992 129.609C107.453 130.691 106.591 131.578 105.526 132.148L104.887 132.489C102.977 133.511 100.697 133.577 98.7311 132.667V132.667C97.758 132.216 96.9033 131.545 96.2346 130.707L94.4193 128.431" stroke="#8A9CCB" stroke-width="3"/>
<path d="M35.8066 86.0336L34.6949 84.9167C33.1296 83.3441 31.0023 82.4601 28.7835 82.4601H27.7798C26.529 82.4601 25.3157 82.8872 24.3407 83.6708L23.877 84.0436C22.8737 84.8499 22.2902 86.0676 22.2902 87.3546V87.3546C22.2902 89.4676 23.8431 91.2594 25.9347 91.5595L27.2699 91.7512L32.0548 92.7126C33.5241 93.0078 34.7745 93.9656 35.4422 95.3073V95.3073C36.1198 96.6686 36.1198 98.2689 35.4422 99.6303L35.217 100.083C34.675 101.172 33.8078 102.066 32.7355 102.64L32.0976 102.982C30.1778 104.011 27.886 104.077 25.91 103.161V103.161C24.933 102.708 24.0751 102.033 23.4042 101.191L21.5788 98.8982" stroke="#8A9CCB" stroke-width="3"/>
<line x1="43.1817" y1="81.9335" x2="43.1817" y2="105.638" stroke="#8A9CCB" stroke-width="3"/>
<ellipse cx="43.3725" cy="78.0926" rx="1.68956" ry="1.80711" fill="#8A9CCB"/>
<path d="M66.6778 105.639V90.3695C66.6778 88.7083 66.1388 87.0919 65.1418 85.7632L65.0104 85.588C61.6776 81.1464 54.8491 81.7112 52.2915 86.6401V86.6401C51.8885 87.4167 51.5918 88.2439 51.4092 89.0995L51.1296 90.4103C50.6371 92.7188 50.6957 95.1109 51.3006 97.3926L51.687 98.8504C52.1049 100.427 53.0916 101.793 54.4569 102.685V102.685C56.8785 104.267 60.0482 104.089 62.2766 102.244L63.5028 101.229C65.5138 99.5648 66.6778 97.0903 66.6778 94.48V68.731" stroke="#8A9CCB" stroke-width="3"/>
<path d="M90.3572 98.2501L88.7321 100.505C88.0655 101.43 87.2029 102.197 86.2059 102.75V102.75C83.8668 104.048 81.0234 104.048 78.6843 102.75L78.5668 102.685C76.8203 101.715 75.5002 100.127 74.8664 98.233L74.6438 97.5676C74.3084 96.5654 74.1374 95.5155 74.1374 94.4587L74.1374 92.3948M74.1374 92.3948L74.3185 90.2017C74.4753 88.3038 75.2781 86.5028 76.5775 85.1107V85.1107C79.6849 81.7819 85.0269 81.8598 87.9922 85.3157V85.3157C89.0808 86.5844 89.7233 88.1752 89.8211 89.8441L89.9705 92.3948H74.1374Z" stroke="#8A9CCB" stroke-width="3"/>
<path d="M37.8669 133.11L49.4216 145.471L52.4133 142.271L40.8586 129.91L37.8669 133.11Z" fill="#8A9CCB"/>
<path d="M31.4831 110.86C25.7596 110.794 20.8985 115.732 20.8324 122.11C20.7663 128.487 25.5239 133.538 31.2474 133.604C36.9709 133.671 41.832 128.732 41.8981 122.354C41.9642 115.977 37.2066 110.927 31.4831 110.86Z" stroke="#8A9CCB" stroke-width="3"/>
<path d="M35.8912 117.624C35.8912 117.624 35.89 117.623 35.8877 117.622C35.89 117.623 35.8912 117.624 35.8912 117.624ZM35.3182 117.843C35.3181 117.843 35.3173 117.841 35.316 117.837C35.3177 117.841 35.3183 117.843 35.3182 117.843Z" stroke="#8A9CCB" stroke-width="3"/>
<path d="M49.6711 111.701V126.358C49.6711 127.51 49.9552 128.644 50.4983 129.66L50.6192 129.886C51.6367 131.79 53.5303 133.067 55.6765 133.296V133.296C57.5828 133.5 59.4822 132.855 60.8696 131.531L62.6461 129.837C64.0002 128.546 64.7664 126.757 64.7664 124.885V124.885M64.7664 111.701V124.885M64.7664 135.14V124.885" stroke="#8A9CCB" stroke-width="3"/>
<path d="M88.5416 127.83L86.9166 130.085C86.2499 131.01 85.3874 131.776 84.3904 132.329V132.329C82.0512 133.628 79.2079 133.628 76.8687 132.33L76.7512 132.264C75.0048 131.295 73.6847 129.707 73.0509 127.813L72.8282 127.147C72.4929 126.145 72.3219 125.095 72.3219 124.038L72.3219 121.974M72.3219 121.974L72.5022 119.791C72.6594 117.887 73.4644 116.084 74.7712 114.691V114.691C77.8724 111.385 83.1757 111.462 86.1474 114.884V114.884C87.2544 116.159 87.9084 117.765 88.0071 119.451L88.155 121.974H72.3219Z" stroke="#8A9CCB" stroke-width="3"/>
<path d="M143.731 120.295C148.362 120.295 154.521 125.368 153.378 135.549C152.234 145.731 149.636 151.047 144.943 151.441C140.88 151.783 137.979 149.632 135.934 145.922M143.731 120.295H131.446M143.731 120.295C140.641 120.295 139.048 124.949 138.735 130.304M144.561 145.922C146.5 145.922 148.743 137.669 148.362 130.304H138.735M144.561 145.922C139.98 145.922 138.274 138.173 138.735 130.304M144.561 145.922H135.934M115.944 15.1394H128.733C129.225 17.2954 129.068 19.3506 128.733 23.9899C128.323 29.6753 127.502 32.3897 125.005 32.9593C122.851 33.4508 118.253 30.7167 116.587 22.0299C116.174 19.8755 116.165 19.8282 116.036 17.975C115.547 10.9917 117.003 6.19661 119.903 3.96079C126.381 -1.03495 139.602 5.81819 137.477 36.2383C135.419 65.6959 134.365 68.5726 132.634 92.3272C132.15 98.9671 131.277 109.746 131.446 120.295M131.446 120.295C131.606 130.276 132.698 140.051 135.934 145.922" stroke="#8A9CCB" stroke-width="3"/>
<path d="M144.995 151.441H25.4244C21.3612 151.783 18.4599 149.632 16.4149 145.922C13.1789 140.051 12.0869 130.276 11.9273 120.295C11.7586 109.746 12.6316 98.9671 13.1155 92.3272C14.8466 68.5726 15.9006 65.6959 17.9585 36.2383V32.9593M124.515 2.5171H10.5795C8.56455 2.5171 6.92343 2.84519 5.47679 3.96079C2.57754 6.19661 1.12103 10.9917 1.60976 17.975C1.73946 19.8282 1.74844 19.8755 2.16151 22.0299C2.74431 25.0696 3.6862 27.3804 4.75682 29.0792C7.37141 33.2279 13.0547 32.9593 17.9585 32.9593V32.9593M124.515 32.9593H17.9585" stroke="#8A9CCB" stroke-width="3"/>
</svg>
