<svg width="29" height="27" viewBox="0 0 29 27" fill="none" xmlns="http://www.w3.org/2000/svg">
<path d="M13.8405 1.74868C14.2179 1.0469 15.2244 1.0469 15.6019 1.74867L18.543 7.21721C18.9765 8.02312 19.7541 8.58713 20.6547 8.74893L26.7697 9.84744C27.5558 9.98864 27.8673 10.9489 27.3139 11.5246L23.0203 15.9919C22.3845 16.6534 22.0863 17.5694 22.211 18.4784L23.0527 24.6148C23.1611 25.4049 22.3463 25.9978 21.6278 25.6515L16.0236 22.9507C15.2006 22.5541 14.2417 22.5541 13.4187 22.9507L7.81454 25.6515C7.09611 25.9978 6.2813 25.4049 6.38967 24.6148L7.23134 18.4784C7.35602 17.5694 7.05789 16.6534 6.4221 15.9919L2.12847 11.5246C1.57506 10.9489 1.8866 9.98864 2.67264 9.84744L8.78765 8.74893C9.68831 8.58713 10.4659 8.02312 10.8993 7.21721L13.8405 1.74868Z" stroke="#435B99" stroke-width="2"/>
</svg>
