<svg width="33" height="27" viewBox="0 0 33 27" fill="none" xmlns="http://www.w3.org/2000/svg">
<path d="M2 0.75C1.30964 0.75 0.75 1.30964 0.75 2C0.75 2.69036 1.30964 3.25 2 3.25V0.75ZM6.54902 2H7.79902V0.75H6.54902V2ZM6.54902 25V26.25H7.79902V25H6.54902ZM2 23.75C1.30964 23.75 0.75 24.3096 0.75 25C0.75 25.6904 1.30964 26.25 2 26.25V23.75ZM6.56336 12.2501C5.87305 12.2422 5.30702 12.7954 5.2991 13.4857C5.29118 14.176 5.84437 14.742 6.53468 14.7499L6.56336 12.2501ZM31.8737 14.6745C32.3674 14.1919 32.3765 13.4005 31.894 12.9068L24.0308 4.86112C23.5483 4.3674 22.7569 4.35832 22.2631 4.84085C21.7694 5.32337 21.7603 6.11478 22.2429 6.6085L29.2324 13.7602L22.0806 20.7497C21.5869 21.2322 21.5778 22.0236 22.0604 22.5174C22.5429 23.0111 23.3343 23.0202 23.828 22.5376L31.8737 14.6745ZM2 3.25H6.54902V0.75H2V3.25ZM5.29902 2V25H7.79902V2H5.29902ZM6.54902 23.75H2V26.25H6.54902V23.75ZM6.53468 14.7499L30.9857 15.0304L31.0143 12.5306L6.56336 12.2501L6.53468 14.7499Z" fill="#7D91C5"/>
</svg>
