<svg width="132" height="132" viewBox="0 0 132 132" fill="none" xmlns="http://www.w3.org/2000/svg">
<circle cx="66" cy="66" r="65.5" fill="#E2E2E2" stroke="#E2E2E2"/>
<path d="M66.6061 77.5C80.5573 77.5 94.5058 83.1908 100.085 95.9779C102.844 102.302 105.006 109.856 105.006 118C94.1417 126.163 80.6357 131 66.0001 131C51.3644 131 37.8584 126.163 26.9938 118C27.8199 118.687 26.1338 117.354 26.9938 118C26.9938 110.751 29.0576 103.565 31.7258 97.3031C37.4617 83.8419 51.9738 77.5 66.6061 77.5Z" fill="white"/>
<path d="M93 44.5C93 59.6878 80.6878 72 65.5 72C50.3122 72 38 59.6878 38 44.5C38 29.3122 50.3122 17 65.5 17C80.6878 17 93 29.3122 93 44.5Z" fill="white"/>
</svg>
