<svg width="31" height="30" viewBox="0 0 31 30" fill="none" xmlns="http://www.w3.org/2000/svg">
<path d="M22.5962 20.8998L23.3177 22.8955C23.842 24.346 23.2126 25.9607 21.845 26.6737C21.5721 26.8159 21.2795 26.9164 20.9769 26.9719L18.6436 27.3999C16.4792 27.7969 14.262 27.8113 12.0926 27.4424L9.34209 26.9747C9.00547 26.9175 8.6812 26.8028 8.38346 26.6356C7.13611 25.9354 6.56285 24.4472 7.01807 23.0911L7.6969 21.0688C8.38919 19.0065 10.2217 17.5382 12.3853 17.3121L14.469 17.0943C15.0691 17.0316 15.6743 17.0341 16.2739 17.1017L18.0346 17.3001C20.116 17.5347 21.8841 18.93 22.5962 20.8998Z" fill="white"/>
<circle cx="15.4586" cy="10.5" r="4.5" fill="white"/>
<circle cx="15.2334" cy="15" r="13.5" stroke="white" stroke-width="3"/>
</svg>
