<svg width="162" height="41" viewBox="0 0 162 41" fill="none" xmlns="http://www.w3.org/2000/svg">
<line x1="150.497" y1="10.8833" x2="161.708" y2="10.8833" stroke="white" stroke-width="3"/>
<path d="M156.103 0.673828V29.5698C156.103 30.1221 156.55 30.5698 157.103 30.5698H161.708" stroke="white" stroke-width="3"/>
<path d="M148.848 15.8951L147.927 15.0445C146.422 13.6537 144.447 12.8813 142.398 12.8813H141.316C140.275 12.8813 139.261 13.2152 138.424 13.8338L137.867 14.2456C136.976 14.9039 136.451 15.9458 136.451 17.0534V17.0534C136.451 18.805 137.749 20.2855 139.485 20.5147L141.018 20.717L145.646 21.5721C146.846 21.7936 147.881 22.546 148.461 23.6187V23.6187C149.11 24.8167 149.11 26.2611 148.461 27.4591L148.268 27.8153C147.797 28.6871 147.065 29.3907 146.176 29.8288L145.401 30.2108C143.654 31.0713 141.619 31.127 139.828 30.3634V30.3634C138.894 29.9651 138.063 29.3591 137.398 28.5914L135.798 26.7444" stroke="white" stroke-width="3"/>
<path d="M15.0498 15.6338L14.11 14.7511C12.6179 13.3498 10.648 12.5698 8.60108 12.5698H7.54962C6.48861 12.5698 5.4563 12.9144 4.60804 13.5517L4.07696 13.9507C3.18014 14.6245 2.65249 15.6809 2.65249 16.8027V16.8027C2.65249 18.5895 3.97444 20.1006 5.74535 20.3382L7.21993 20.536L11.8028 21.3968C13.0303 21.6274 14.0865 22.4034 14.6735 23.5058V23.5058C15.3166 24.7139 15.3166 26.1628 14.6735 27.3708L14.478 27.738C14.001 28.6338 13.2574 29.3592 12.35 29.8137L11.6113 30.1837C9.86178 31.06 7.81408 31.1167 6.0188 30.3385V30.3385C5.0919 29.9367 4.26935 29.328 3.61426 28.559L2 26.6639" stroke="white" stroke-width="3"/>
<line x1="22.1849" y1="11.7783" x2="22.1849" y2="32.1892" stroke="white" stroke-width="3"/>
<ellipse cx="22.0925" cy="8.6266" rx="1.4076" ry="1.35072" fill="white"/>
<path d="M64.7954 25.9607L63.3765 27.7786C62.7101 28.6325 61.8654 29.3308 60.9015 29.8248V29.8248C58.7682 30.9181 56.2167 30.9066 54.0834 29.8133V29.8133C52.3876 28.9442 51.0664 27.456 50.4172 25.6644L50.335 25.4378C50.0124 24.5475 49.8474 23.6079 49.8474 22.661L49.8474 20.978M49.8474 20.978L49.9605 19.7136C50.1382 17.7264 51.0729 15.8836 52.5713 14.5662V14.5662C55.2758 12.1884 59.3588 12.2448 62.0216 14.6692V14.6692C63.388 15.9131 64.2278 17.6491 64.3448 19.4932L64.4391 20.978H49.8474Z" stroke="white" stroke-width="3"/>
<path d="M86.1101 30.3513L96.7588 41L99.516 38.2429L88.8672 27.5942L86.1101 30.3513Z" fill="white"/>
<path d="M80.2244 11.39C74.9283 11.3324 70.5875 15.5791 70.5288 20.8751C70.4701 26.1712 74.7159 30.5111 80.0119 30.5687C85.308 30.6263 89.6489 26.3797 89.7075 21.0836C89.7662 15.7876 85.5205 11.4476 80.2244 11.39Z" stroke="white" stroke-width="3"/>
<path d="M84.3049 16.8063C84.3086 16.8081 84.3104 16.8092 84.3104 16.8093C84.3104 16.8094 84.3085 16.8085 84.3049 16.8063Z" stroke="white" stroke-width="3"/>
<path d="M95.9744 12.2585V24.5858C95.9744 25.6522 96.2559 26.6997 96.7904 27.6224V27.6224C97.7677 29.3094 99.4972 30.4228 101.437 30.6142L101.557 30.626C103.293 30.7973 105.022 30.2403 106.332 29.088L108.016 27.6065C109.205 26.5604 109.886 25.0532 109.886 23.4695V23.4695M109.886 12.2585V23.4695M109.886 32.1892V23.4695" stroke="white" stroke-width="3"/>
<path d="M130.98 25.9607L129.561 27.7786C128.895 28.6325 128.05 29.3308 127.086 29.8248V29.8248C124.953 30.9181 122.401 30.9066 120.268 29.8133V29.8133C118.572 28.9442 117.251 27.456 116.602 25.6644L116.52 25.4378C116.197 24.5475 116.032 23.6079 116.032 22.661L116.032 20.978M116.032 20.978L116.138 19.7952C116.32 17.7583 117.307 15.8596 118.86 14.5288V14.5288C121.59 12.1882 125.676 12.2491 128.303 14.706V14.706C129.616 15.9342 130.41 17.6175 130.524 19.4119L130.624 20.978H116.032Z" stroke="white" stroke-width="3"/>
<path d="M43.6073 32.1891V19.324C43.6073 17.7098 43.0566 16.1438 42.0461 14.8849L41.9227 14.7312C38.8276 10.8752 32.811 11.3867 30.4112 15.7099V15.7099C29.9988 16.4529 29.6935 17.2504 29.5044 18.0788L29.2968 18.9885C28.8317 21.0268 28.8869 23.1493 29.4573 25.1607L29.7293 26.1201C30.1542 27.6184 31.1284 28.9015 32.4575 29.7134V29.7134C34.6492 31.0521 37.44 30.8982 39.4712 29.3266L40.4842 28.5428C42.4541 27.0187 43.6073 24.6684 43.6073 22.1778V0.393066" stroke="white" stroke-width="3"/>
</svg>
