<svg width="77" height="54" viewBox="0 0 77 54" fill="none" xmlns="http://www.w3.org/2000/svg">
<line x1="68" y1="26.2445" x2="77" y2="26.2445" stroke="#435B99" stroke-width="2.5"/>
<path d="M72.5 20.418V43.691C72.5 44.2433 72.9477 44.691 73.5 44.691H77" stroke="#435B99" stroke-width="2.5"/>
<path d="M66.6837 32.4471L65.9306 31.741C64.7318 30.6168 63.1501 29.9912 61.5066 29.9912H60.6603C59.81 29.9912 58.9827 30.267 58.3026 30.7773L57.8743 31.0985C57.1548 31.6383 56.7313 32.4853 56.7313 33.3848V33.3848C56.7313 34.8165 57.7908 36.0274 59.2099 36.2175L60.398 36.3766L64.0804 37.0673C65.0638 37.2517 65.9101 37.8728 66.3808 38.7557V38.7557C66.8975 39.7247 66.8975 40.8875 66.3808 41.8566L66.2241 42.1506C65.8416 42.8679 65.2455 43.4486 64.5184 43.8122L63.9226 44.1102C62.5184 44.8125 60.8755 44.8579 59.4346 44.2343V44.2343C58.6899 43.912 58.029 43.4235 57.5023 42.8062L56.2075 41.2885" stroke="#435B99" stroke-width="2.5"/>
<path d="M12.8435 11.9666L12.0854 11.2546C10.8819 10.1243 9.2929 9.49512 7.64184 9.49512H6.79371C5.93788 9.49512 5.10519 9.77307 4.42096 10.2871L3.99259 10.609C3.26919 11.1525 2.84357 12.0046 2.84357 12.9094V12.9094C2.84357 14.3507 3.90989 15.5696 5.33835 15.7613L6.52777 15.9209L10.2244 16.6152C11.2145 16.8012 12.0665 17.4271 12.54 18.3164V18.3164C13.0587 19.2908 13.0587 20.4595 12.54 21.4339L12.3823 21.7301C11.9976 22.4527 11.3977 23.0378 10.6658 23.4044L10.0699 23.7029C8.65875 24.4097 7.00703 24.4554 5.55891 23.8277V23.8277C4.81126 23.5037 4.14777 23.0126 3.61936 22.3923L2.31726 20.8637" stroke="#435B99" stroke-width="2.5"/>
<line x1="18.4401" y1="9.13086" x2="18.4401" y2="25.5246" stroke="#435B99" stroke-width="2.5"/>
<circle cx="18.4411" cy="6.47485" r="1.25" fill="#435B99"/>
<path d="M35.6832 25.5254V15.1975C35.6832 13.9016 35.2411 12.6445 34.4299 11.6339L34.3309 11.5105C31.8461 8.41486 27.0161 8.82549 25.0896 12.2961V12.2961C24.7585 12.8926 24.5134 13.5328 24.3616 14.1979L24.195 14.9281C23.8216 16.5644 23.8659 18.2684 24.3238 19.8831L24.5422 20.6533C24.8833 21.8561 25.6653 22.8861 26.7323 23.5379V23.5379C28.4918 24.6126 30.7322 24.4891 32.3628 23.2274L33.1761 22.5982C34.7575 21.3747 35.6832 19.4879 35.6832 17.4884V0" stroke="#435B99" stroke-width="2.5"/>
<path d="M53.2021 20.4155L52.0533 21.9057C51.5248 22.5912 50.8528 23.153 50.0844 23.5516V23.5516C48.3691 24.4417 46.305 24.4298 44.5896 23.5398V23.5398C43.2388 22.8389 42.1854 21.6439 41.6726 20.2111L41.5909 19.983C41.3337 19.2643 41.2022 18.5067 41.2022 17.7434L41.2022 16.366M41.2022 16.366L41.3145 15.0941C41.4441 13.6266 42.095 12.2419 43.136 11.1995V11.1995C45.4141 8.91818 49.1593 8.97171 51.3394 11.3469V11.3469C52.2159 12.3017 52.7382 13.5283 52.8193 14.8219L52.9161 16.366H41.2022Z" stroke="#435B99" stroke-width="2.5"/>
<path d="M14.3678 44.525L22.9164 53.0737L25.1298 50.8603L16.5812 42.3116L14.3678 44.525Z" fill="#435B99"/>
<path d="M9.64233 29.349C5.41604 29.3031 1.952 32.6919 1.90518 36.9182C1.85835 41.1445 5.24649 44.6078 9.47278 44.6538C13.6991 44.6997 17.1631 41.3109 17.2099 37.0846C17.2568 32.8583 13.8686 29.395 9.64233 29.349Z" stroke="#435B99" stroke-width="2.5"/>
<path d="M12.9402 33.6109C12.9439 33.6127 12.9457 33.6138 12.9457 33.6139C12.9457 33.614 12.9438 33.6131 12.9402 33.6109Z" stroke="#435B99" stroke-width="2.5"/>
<path d="M23.101 29.7181V39.7634C23.101 40.6188 23.3244 41.4593 23.749 42.2019V42.2019C24.5376 43.581 25.9444 44.4937 27.5252 44.6517L27.5768 44.6568C28.973 44.7964 30.3638 44.3443 31.4113 43.4106L32.7565 42.2114C33.7188 41.3536 34.2691 40.1258 34.2691 38.8367V38.8367M34.2691 29.7181V38.8367M34.2691 45.9288V38.8367" stroke="#435B99" stroke-width="2.5"/>
<path d="M51.8589 40.8727L50.7101 42.3629C50.1816 43.0485 49.5096 43.6103 48.7412 44.0089V44.0089C47.0259 44.8989 44.9618 44.8871 43.2464 43.997V43.997C41.8956 43.2962 40.8422 42.1012 40.3294 40.6684L40.2477 40.4402C39.9905 39.7215 39.859 38.9639 39.859 38.2006L39.859 36.8232M39.859 36.8232L39.9707 35.5582C40.1007 34.0866 40.7531 32.7007 41.7995 31.658V31.658C44.0725 29.393 47.7897 29.4456 49.9734 31.7968V31.7968C50.8641 32.7558 51.3955 33.9936 51.4774 35.2999L51.5729 36.8232H39.859Z" stroke="#435B99" stroke-width="2.5"/>
</svg>
