<svg width="25" height="22" viewBox="0 0 25 22" fill="none" xmlns="http://www.w3.org/2000/svg">
<path fill-rule="evenodd" clip-rule="evenodd" d="M1.27018 0.0815342C1.0914 0.00270116 0.883079 0.0352329 0.736843 0.164821C0.590607 0.294408 0.533256 0.497307 0.590013 0.684273L3.56782 10.4935L0.590013 20.3028C0.533256 20.4898 0.590607 20.6927 0.736843 20.8222C0.883079 20.9518 1.0914 20.9844 1.27018 20.9055L23.8394 10.9538C23.8575 10.9461 23.8751 10.9373 23.892 10.9276C23.9467 10.8964 23.9938 10.8559 24.0321 10.8087C24.0705 10.7615 24.1005 10.7069 24.1198 10.6469C24.134 10.603 24.1421 10.557 24.1437 10.51C24.1441 10.4982 24.144 10.4864 24.1436 10.4747C24.1419 10.4286 24.1337 10.3833 24.1198 10.3402C24.1006 10.2803 24.0706 10.2258 24.0323 10.1786C23.994 10.1313 23.9468 10.0907 23.892 10.0594C23.8751 10.0497 23.8575 10.041 23.8394 10.0333L1.27018 0.0815342ZM21.2707 9.99353L1.86326 1.43595L4.46109 9.99353H21.2707ZM21.2707 10.9935H4.46109L1.86326 19.5511L21.2707 10.9935Z" fill="#131313"/>
</svg>
